<svg width="70" height="70" viewBox="0 0 70 70" fill="none" xmlns="http://www.w3.org/2000/svg">
<path d="M24.0625 15.3125C24.0625 12.4117 25.2149 9.6297 27.266 7.57852C29.3172 5.52734 32.0992 4.375 35 4.375C37.9008 4.375 40.6828 5.52734 42.734 7.57852C44.7852 9.6297 45.9375 12.4117 45.9375 15.3125C45.9375 18.2133 44.7852 20.9953 42.734 23.0465C40.6828 25.0977 37.9008 26.25 35 26.25C32.0992 26.25 29.3172 25.0977 27.266 23.0465C25.2149 20.9953 24.0625 18.2133 24.0625 15.3125ZM28.4375 30.625C26.697 30.625 25.0278 31.3164 23.7971 32.5471C22.5664 33.7778 21.875 35.447 21.875 37.1875V48.125C21.875 51.606 23.2578 54.9444 25.7192 57.4058C28.1807 59.8672 31.519 61.25 35 61.25C38.481 61.25 41.8194 59.8672 44.2808 57.4058C46.7422 54.9444 48.125 51.606 48.125 48.125V37.1875C48.125 35.447 47.4336 33.7778 46.2029 32.5471C44.9722 31.3164 43.303 30.625 41.5625 30.625H28.4375ZM17.745 34.8687C17.581 35.6307 17.4988 36.4081 17.5 37.1875V48.125C17.4996 50.4665 17.969 52.7843 18.8806 54.9411C19.7922 57.0979 21.1273 59.0498 22.8069 60.6812L22.3694 60.8037C19.008 61.7031 15.427 61.2308 12.4137 59.4908C9.40034 57.7507 7.20132 54.8853 6.30002 51.5244L4.59814 45.1806C4.37519 44.3481 4.31841 43.4799 4.43103 42.6254C4.54365 41.771 4.82347 40.9471 5.25451 40.2008C5.68555 39.4545 6.25937 38.8004 6.94321 38.2759C7.62705 37.7513 8.4075 37.3666 9.24002 37.1437L17.745 34.8687ZM47.1888 60.6812C48.8692 59.0502 50.2051 57.0984 51.1174 54.9416C52.0297 52.7848 52.4999 50.4668 52.5 48.125V37.1875C52.4971 36.3883 52.4154 35.6154 52.255 34.8687L60.7556 37.1437C61.5886 37.3666 62.3695 37.7515 63.0537 38.2763C63.7379 38.8011 64.3119 39.4556 64.743 40.2024C65.1741 40.9492 65.4538 41.7736 65.5661 42.6286C65.6784 43.4835 65.6211 44.3522 65.3975 45.185L63.7 51.5244C63.2441 53.2258 62.4504 54.818 61.3662 56.2062C60.282 57.5944 58.9294 58.7501 57.3891 59.6046C55.8488 60.459 54.1523 60.9947 52.4006 61.1797C50.6489 61.3646 48.8736 61.1951 47.1888 60.6812ZM4.37502 21.875C4.37502 19.5544 5.29689 17.3288 6.93783 15.6878C8.57877 14.0469 10.8044 13.125 13.125 13.125C15.4457 13.125 17.6713 14.0469 19.3122 15.6878C20.9531 17.3288 21.875 19.5544 21.875 21.875C21.875 24.1956 20.9531 26.4212 19.3122 28.0622C17.6713 29.7031 15.4457 30.625 13.125 30.625C10.8044 30.625 8.57877 29.7031 6.93783 28.0622C5.29689 26.4212 4.37502 24.1956 4.37502 21.875ZM48.125 21.875C48.125 19.5544 49.0469 17.3288 50.6878 15.6878C52.3288 14.0469 54.5544 13.125 56.875 13.125C59.1957 13.125 61.4213 14.0469 63.0622 15.6878C64.7031 17.3288 65.625 19.5544 65.625 21.875C65.625 24.1956 64.7031 26.4212 63.0622 28.0622C61.4213 29.7031 59.1957 30.625 56.875 30.625C54.5544 30.625 52.3288 29.7031 50.6878 28.0622C49.0469 26.4212 48.125 24.1956 48.125 21.875Z" fill="white"/>
</svg>
