<svg width="70" height="70" viewBox="0 0 70 70" fill="none" xmlns="http://www.w3.org/2000/svg">
<path d="M15.0003 40.8335C12.8118 37.2496 11.658 33.1299 11.6666 28.9306C11.6666 16.1731 22.114 5.8335 34.9999 5.8335C47.8857 5.8335 58.3332 16.1731 58.3332 28.9306C58.3418 33.1299 57.188 37.2496 54.9995 40.8335M43.7499 55.4168L43.3707 57.3039C42.9624 59.366 42.7553 60.3956 42.2915 61.2122C41.5769 62.4709 40.4199 63.419 39.0453 63.8722C38.1557 64.1668 37.0999 64.1668 34.9999 64.1668C32.8999 64.1668 31.844 64.1668 30.9545 63.8752C29.5794 63.4212 28.4223 62.472 27.7082 61.2122C27.2445 60.3956 27.0374 59.366 26.6291 57.3039L26.2499 55.4168M21.5336 49.8693C21.2653 49.0643 21.1311 48.6589 21.1457 48.3322C21.1622 47.9945 21.2762 47.6687 21.474 47.3944C21.6717 47.12 21.9447 46.9089 22.2599 46.7864C22.5632 46.6668 22.9891 46.6668 23.8349 46.6668H46.1649C47.0136 46.6668 47.4365 46.6668 47.7399 46.7835C48.0555 46.9062 48.3288 47.1178 48.5266 47.3927C48.7243 47.6676 48.8381 47.994 48.854 48.3322C48.8686 48.6589 48.7345 49.0614 48.4661 49.8693C47.9703 51.3597 47.7224 52.1064 47.3403 52.7102C46.5411 53.9719 45.2884 54.8791 43.8403 55.2447C43.1461 55.4168 42.3645 55.4168 40.7982 55.4168H29.2016C27.6353 55.4168 26.8507 55.4168 26.1595 55.2418C24.7118 54.8769 23.4592 53.9708 22.6595 52.7102C22.2774 52.1064 22.0295 51.3597 21.5336 49.8693Z" stroke="white" stroke-width="1.5" stroke-linecap="round" stroke-linejoin="round"/>
<path d="M24.0625 28.4375L30.625 35V46.6667M45.9375 28.4375L39.375 35V46.6667M24.0625 30.625C24.6427 30.625 25.1991 30.3945 25.6093 29.9843C26.0195 29.5741 26.25 29.0177 26.25 28.4375C26.25 27.8573 26.0195 27.3009 25.6093 26.8907C25.1991 26.4805 24.6427 26.25 24.0625 26.25C23.4823 26.25 22.9259 26.4805 22.5157 26.8907C22.1055 27.3009 21.875 27.8573 21.875 28.4375C21.875 29.0177 22.1055 29.5741 22.5157 29.9843C22.9259 30.3945 23.4823 30.625 24.0625 30.625ZM45.9375 30.625C45.3573 30.625 44.8009 30.3945 44.3907 29.9843C43.9805 29.5741 43.75 29.0177 43.75 28.4375C43.75 27.8573 43.9805 27.3009 44.3907 26.8907C44.8009 26.4805 45.3573 26.25 45.9375 26.25C46.5177 26.25 47.0741 26.4805 47.4843 26.8907C47.8945 27.3009 48.125 27.8573 48.125 28.4375C48.125 29.0177 47.8945 29.5741 47.4843 29.9843C47.0741 30.3945 46.5177 30.625 45.9375 30.625Z" stroke="white" stroke-width="1.5" stroke-linecap="round" stroke-linejoin="round"/>
</svg>
