<svg width="70" height="70" viewBox="0 0 70 70" fill="none" xmlns="http://www.w3.org/2000/svg">
<path d="M47.1844 60.7031C43.3781 62.5131 39.2148 63.4474 35.0001 63.4375C19.3201 63.4375 6.56256 50.68 6.56256 35C6.56256 28.2734 8.87475 21.9209 13.1251 16.8263V21.875H17.5001V8.75H4.37506V13.125H10.5919C5.1682 19.1181 2.17187 26.917 2.18756 35C2.18756 53.0928 16.9072 67.8125 35.0001 67.8125C39.8656 67.8226 44.6717 66.7433 49.0657 64.6537L47.1844 60.7031Z" fill="white"/>
<path d="M45.9375 19.6875C39.025 19.6875 33.3572 25.0622 32.8606 31.85C30.4558 29.6556 27.318 28.4386 24.0625 28.4375H15.3125V37.1875C15.3125 44.4259 21.2012 50.3125 28.4375 50.3125H32.8125V59.0625H37.1875V41.5625H41.5625C48.7988 41.5625 54.6875 35.6759 54.6875 28.4375V19.6875H45.9375ZM28.4375 45.9375C23.6119 45.9375 19.6875 42.0131 19.6875 37.1875V32.8125H24.0625C28.8881 32.8125 32.8125 36.7369 32.8125 41.5625V42.8444L27.7966 37.8284L24.7034 40.9216L29.7194 45.9375H28.4375ZM50.3125 28.4375C50.3125 33.2631 46.3881 37.1875 41.5625 37.1875H40.2806L45.2966 32.1716L42.2034 29.0784L37.1875 34.0944V32.8125C37.1875 27.9869 41.1119 24.0625 45.9375 24.0625H50.3125V28.4375Z" fill="white"/>
<path d="M67.8125 35.0001C67.8125 16.9073 53.0928 2.18757 35 2.18757C30.1344 2.17744 25.3283 3.25675 20.9343 5.34632L22.8156 9.29695C26.6219 7.487 30.7853 6.55267 35 6.56257C50.68 6.56257 63.4375 19.3201 63.4375 35.0001C63.4375 41.7266 61.1253 48.0791 56.875 53.1738V48.1251H52.5V61.2501H65.625V56.8751H59.4081C64.8318 50.8819 67.8281 43.083 67.8125 35.0001Z" fill="white"/>
</svg>
