<svg width="70" height="70" viewBox="0 0 70 70" fill="none" xmlns="http://www.w3.org/2000/svg">
<g clip-path="url(#clip0_1773_378)">
<path d="M56.875 37.1875C58.3789 37.1875 59.7917 37.4723 61.1133 38.042C62.4349 38.6117 63.597 39.3864 64.5996 40.3662C65.6022 41.346 66.3883 42.5081 66.958 43.8525C67.5277 45.1969 67.8125 46.6211 67.8125 48.125C67.8125 49.3099 67.6302 50.4606 67.2656 51.5771C66.901 52.6937 66.3542 53.7305 65.625 54.6875V69.1797L56.875 64.8047L48.125 69.1797V54.6875C47.4186 53.7305 46.8831 52.6937 46.5186 51.5771C46.154 50.4606 45.9603 49.3099 45.9375 48.125C45.9375 46.6211 46.2223 45.2083 46.792 43.8867C47.3617 42.5651 48.1364 41.403 49.1162 40.4004C50.096 39.3978 51.2581 38.6117 52.6025 38.042C53.9469 37.4723 55.3711 37.1875 56.875 37.1875ZM56.875 41.5625C55.9635 41.5625 55.1091 41.7334 54.3115 42.0752C53.514 42.417 52.819 42.8841 52.2266 43.4766C51.6341 44.069 51.167 44.764 50.8252 45.5615C50.4834 46.3591 50.3125 47.2135 50.3125 48.125C50.3125 49.0365 50.4834 49.8909 50.8252 50.6885C51.167 51.486 51.6341 52.181 52.2266 52.7734C52.819 53.3659 53.514 53.833 54.3115 54.1748C55.1091 54.5166 55.9635 54.6875 56.875 54.6875C57.7865 54.6875 58.6409 54.5166 59.4385 54.1748C60.236 53.833 60.931 53.3659 61.5234 52.7734C62.1159 52.181 62.583 51.486 62.9248 50.6885C63.2666 49.8909 63.4375 49.0365 63.4375 48.125C63.4375 47.2135 63.2666 46.3591 62.9248 45.5615C62.583 44.764 62.1159 44.069 61.5234 43.4766C60.931 42.8841 60.236 42.417 59.4385 42.0752C58.6409 41.7334 57.7865 41.5625 56.875 41.5625ZM61.25 62.0703V58.1396C59.8828 58.7549 58.4245 59.0625 56.875 59.0625C55.3255 59.0625 53.8672 58.7549 52.5 58.1396V62.0703L56.875 59.8828L61.25 62.0703ZM56.875 17.5C55.6673 17.5 54.5394 17.7279 53.4912 18.1836C52.443 18.6393 51.5088 19.266 50.6885 20.0635C49.8682 20.861 49.2415 21.7839 48.8086 22.832C48.3757 23.8802 48.1478 25.0195 48.125 26.25C48.125 28.3464 47.6579 30.3174 46.7236 32.1631C45.7894 34.0088 44.4678 35.5697 42.7588 36.8457C43.1917 37.0508 43.6019 37.2786 43.9893 37.5293C44.3766 37.7799 44.7754 38.042 45.1855 38.3154L42.6221 41.8701C41.5055 41.0726 40.2979 40.4574 38.999 40.0244C37.7002 39.5915 36.3672 39.375 35 39.375C33.1771 39.375 31.4795 39.7168 29.9072 40.4004C28.335 41.084 26.945 42.0182 25.7373 43.2031C24.5296 44.388 23.584 45.7894 22.9004 47.4072C22.2168 49.0251 21.875 50.7227 21.875 52.5H17.5C17.5 50.8366 17.7279 49.2301 18.1836 47.6807C18.6393 46.1312 19.2887 44.6729 20.1318 43.3057C20.9749 41.9385 21.9889 40.708 23.1738 39.6143C24.3587 38.5205 25.7031 37.5863 27.207 36.8115C25.5208 35.5583 24.2106 34.0088 23.2764 32.1631C22.3421 30.3174 21.875 28.3464 21.875 26.25C21.875 25.0423 21.6471 23.9144 21.1914 22.8662C20.7357 21.818 20.109 20.8838 19.3115 20.0635C18.514 19.2432 17.5911 18.6165 16.543 18.1836C15.4948 17.7507 14.3555 17.5228 13.125 17.5C11.9173 17.5 10.7894 17.7279 9.74121 18.1836C8.69303 18.6393 7.75879 19.266 6.93848 20.0635C6.11816 20.861 5.49154 21.7839 5.05859 22.832C4.62565 23.8802 4.39779 25.0195 4.375 26.25H0C0 25.0651 0.159505 23.9144 0.478516 22.7979C0.797526 21.6813 1.24186 20.6217 1.81152 19.6191C2.38118 18.6165 3.08757 17.7051 3.93066 16.8848C4.77376 16.0645 5.7194 15.3581 6.76758 14.7656C6.01562 13.9681 5.43457 13.0452 5.02441 11.9971C4.61426 10.9489 4.39779 9.86654 4.375 8.75C4.375 7.54232 4.60286 6.41439 5.05859 5.36621C5.51432 4.31803 6.14095 3.38379 6.93848 2.56348C7.736 1.74316 8.65885 1.11654 9.70703 0.683594C10.7552 0.250651 11.8945 0.0227865 13.125 0C14.3327 0 15.4606 0.227865 16.5088 0.683594C17.557 1.13932 18.4912 1.76595 19.3115 2.56348C20.1318 3.361 20.7585 4.28385 21.1914 5.33203C21.6243 6.38021 21.8522 7.51953 21.875 8.75C21.875 9.86654 21.6699 10.9489 21.2598 11.9971C20.8496 13.0452 20.2572 13.9681 19.4824 14.7656C21.3509 15.791 22.8776 17.2038 24.0625 19.0039C24.6777 18.0924 25.3841 17.2721 26.1816 16.543C26.9792 15.8138 27.8451 15.1986 28.7793 14.6973C29.7135 14.196 30.7048 13.8086 31.7529 13.5352C32.8011 13.2617 33.8835 13.125 35 13.125C36.0938 13.125 37.1647 13.2617 38.2129 13.5352C39.2611 13.8086 40.2523 14.196 41.1865 14.6973C42.1208 15.1986 42.998 15.8138 43.8184 16.543C44.6387 17.2721 45.3451 18.0924 45.9375 19.0039C47.1224 17.2038 48.6491 15.791 50.5176 14.7656C49.7656 13.9681 49.1846 13.0452 48.7744 11.9971C48.3643 10.9489 48.1478 9.86654 48.125 8.75C48.125 7.54232 48.3529 6.41439 48.8086 5.36621C49.2643 4.31803 49.8909 3.38379 50.6885 2.56348C51.486 1.74316 52.4089 1.11654 53.457 0.683594C54.5052 0.250651 55.6445 0.0227865 56.875 0C58.0827 0 59.2106 0.227865 60.2588 0.683594C61.307 1.13932 62.2412 1.76595 63.0615 2.56348C63.8818 3.361 64.5085 4.28385 64.9414 5.33203C65.3744 6.38021 65.6022 7.51953 65.625 8.75C65.625 9.86654 65.4199 10.9489 65.0098 11.9971C64.5996 13.0452 64.0072 13.9681 63.2324 14.7656C64.2806 15.3581 65.2148 16.0645 66.0352 16.8848C66.8555 17.7051 67.5619 18.6051 68.1543 19.585C68.7467 20.5648 69.2025 21.6243 69.5215 22.7637C69.8405 23.903 70 25.0651 70 26.25H65.625C65.625 25.0423 65.3971 23.9144 64.9414 22.8662C64.4857 21.818 63.8591 20.8838 63.0615 20.0635C62.264 19.2432 61.3411 18.6165 60.293 18.1836C59.2448 17.7507 58.1055 17.5228 56.875 17.5ZM52.5 8.75C52.5 9.36523 52.6139 9.9349 52.8418 10.459C53.0697 10.9831 53.3773 11.4388 53.7646 11.8262C54.152 12.2135 54.6191 12.5326 55.166 12.7832C55.7129 13.0339 56.2826 13.1478 56.875 13.125C57.4902 13.125 58.0599 13.0111 58.584 12.7832C59.1081 12.5553 59.5638 12.2477 59.9512 11.8604C60.3385 11.473 60.6576 11.0059 60.9082 10.459C61.1589 9.91211 61.2728 9.34245 61.25 8.75C61.25 8.13477 61.1361 7.5651 60.9082 7.04102C60.6803 6.51693 60.3727 6.0612 59.9854 5.67383C59.598 5.28646 59.1309 4.96745 58.584 4.7168C58.0371 4.46615 57.4674 4.35221 56.875 4.375C56.2598 4.375 55.6901 4.48893 55.166 4.7168C54.6419 4.94466 54.1862 5.25228 53.7988 5.63965C53.4115 6.02702 53.0924 6.49414 52.8418 7.04102C52.5911 7.58789 52.4772 8.15755 52.5 8.75ZM8.75 8.75C8.75 9.36523 8.86393 9.9349 9.0918 10.459C9.31966 10.9831 9.62728 11.4388 10.0146 11.8262C10.402 12.2135 10.8691 12.5326 11.416 12.7832C11.9629 13.0339 12.5326 13.1478 13.125 13.125C13.7402 13.125 14.3099 13.0111 14.834 12.7832C15.3581 12.5553 15.8138 12.2477 16.2012 11.8604C16.5885 11.473 16.9076 11.0059 17.1582 10.459C17.4089 9.91211 17.5228 9.34245 17.5 8.75C17.5 8.13477 17.3861 7.5651 17.1582 7.04102C16.9303 6.51693 16.6227 6.0612 16.2354 5.67383C15.848 5.28646 15.3809 4.96745 14.834 4.7168C14.2871 4.46615 13.7174 4.35221 13.125 4.375C12.5098 4.375 11.9401 4.48893 11.416 4.7168C10.8919 4.94466 10.4362 5.25228 10.0488 5.63965C9.66146 6.02702 9.34245 6.49414 9.0918 7.04102C8.84115 7.58789 8.72721 8.15755 8.75 8.75ZM26.25 26.25C26.25 27.4577 26.4779 28.5856 26.9336 29.6338C27.3893 30.682 28.016 31.6162 28.8135 32.4365C29.611 33.2568 30.5339 33.8835 31.582 34.3164C32.6302 34.7493 33.7695 34.9772 35 35C36.2077 35 37.3356 34.7721 38.3838 34.3164C39.432 33.8607 40.3662 33.2341 41.1865 32.4365C42.0068 31.639 42.6335 30.7161 43.0664 29.668C43.4993 28.6198 43.7272 27.4805 43.75 26.25C43.75 25.0423 43.5221 23.9144 43.0664 22.8662C42.6107 21.818 41.9841 20.8838 41.1865 20.0635C40.389 19.2432 39.4661 18.6165 38.418 18.1836C37.3698 17.7507 36.2305 17.5228 35 17.5C33.7923 17.5 32.6644 17.7279 31.6162 18.1836C30.568 18.6393 29.6338 19.266 28.8135 20.0635C27.9932 20.861 27.3665 21.7839 26.9336 22.832C26.5007 23.8802 26.2728 25.0195 26.25 26.25Z" fill="white"/>
</g>
<defs>
<clipPath id="clip0_1773_378">
<rect width="70" height="70" fill="white"/>
</clipPath>
</defs>
</svg>
